<svg width="28" height="28" viewBox="0 0 28 28" fill="none" xmlns="http://www.w3.org/2000/svg">
<path d="M16.4497 10.1263V7.14731H23.464V2.51349H4.30082V7.14726H11.3145V10.1377C5.64903 10.4274 1.40479 11.6146 1.40479 13.0354C1.40479 14.4561 5.64903 15.6434 11.3145 15.9331V25.2165C12.182 25.3938 13.0801 25.4865 14 25.4865C14.8369 25.4865 15.6559 25.4096 16.4497 25.2623V15.9445C22.2331 15.6761 26.5952 14.4758 26.5952 13.0354C26.5952 11.595 22.2331 10.3947 16.4497 10.1263ZM14 14.8665C7.68027 14.8665 2.55713 13.9144 2.55713 12.7397C2.55713 11.7369 6.29066 10.8961 11.3146 10.6719V14.078C12.1663 14.2008 13.0245 14.2625 13.8822 14.2625C14.7404 14.2625 15.5986 14.2008 16.4498 14.078V10.6615C21.5921 10.8704 25.4424 11.721 25.4424 12.7397C25.4423 13.9144 20.3191 14.8665 14 14.8665Z" fill="white"/>
</svg>
