<svg width="48" height="44" viewBox="0 0 48 44" fill="none" xmlns="http://www.w3.org/2000/svg">
<path d="M2.89021 19.5678L30.9716 8.37351C33.7436 7.20744 43.1443 3.47602 43.1443 3.47602C43.1443 3.47602 47.483 1.84353 47.1215 5.80816C47.0009 7.44065 46.0368 13.1544 45.0726 19.3345L42.0596 37.6418C42.0596 37.6418 41.8185 40.3238 39.7697 40.7902C37.7208 41.2566 34.3462 39.1577 33.7436 38.6913C33.2615 38.3414 24.7045 33.0941 21.571 30.5288C20.7273 29.8292 19.7632 28.4299 21.6915 26.7974C26.0303 22.9494 31.2127 18.1685 34.3462 15.1367C35.7925 13.7374 37.2387 10.4724 31.2127 14.4371L14.2192 25.5147C14.2192 25.5147 12.2909 26.6808 8.67522 25.6313C5.05959 24.5818 0.84135 23.1826 0.84135 23.1826C0.84135 23.1826 -2.05116 21.4335 2.89021 19.5678Z" fill="black"/>
</svg>
