<svg width="48" height="44" viewBox="0 0 48 44" fill="none" xmlns="http://www.w3.org/2000/svg">
<path d="M47.2859 7.00776C45.5328 7.79649 43.6648 8.3193 41.7172 8.57314C43.7207 7.34622 45.2499 5.4182 45.9689 3.0943C44.1008 4.2366 42.0383 5.04347 39.8403 5.49375C38.0665 3.55666 35.5385 2.35693 32.7807 2.35693C27.4299 2.35693 23.1223 6.81133 23.1223 12.272C23.1223 13.0578 23.1871 13.8133 23.3462 14.5325C15.3113 14.1306 8.20155 10.1808 3.42539 4.16408C2.59155 5.64787 2.10244 7.34622 2.10244 9.17452C2.10244 12.6075 3.8261 15.6506 6.39539 17.4124C4.84262 17.3822 3.31932 16.9198 2.02878 16.1915C2.02878 16.2218 2.02878 16.2611 2.02878 16.3003C2.02878 21.1174 5.37887 25.1185 9.77199 26.0402C8.9853 26.2608 8.12789 26.3665 7.23807 26.3665C6.61932 26.3665 5.99467 26.3303 5.40833 26.1973C6.66057 30.1229 10.214 33.0089 14.4391 33.1025C11.1509 35.7407 6.97583 37.3303 2.45601 37.3303C1.66342 37.3303 0.903245 37.294 0.143066 37.1943C4.42423 40.0259 9.49798 41.6427 14.9695 41.6427C32.7541 41.6427 42.4774 26.5328 42.4774 13.4355C42.4774 12.9973 42.4626 12.5742 42.442 12.1542C44.3601 10.758 45.9718 9.01435 47.2859 7.00776Z" fill="black"/>
</svg>
