<svg width="20" height="20" viewBox="0 0 20 20" fill="none" xmlns="http://www.w3.org/2000/svg">
<path fill-rule="evenodd" clip-rule="evenodd" d="M10 20C15.5228 20 20 15.5228 20 10C20 4.47715 15.5228 0 10 0C4.47715 0 0 4.47715 0 10C0 15.5228 4.47715 20 10 20ZM9.07988 7.29927C9.34052 7.54046 9.64611 7.66106 9.99663 7.66106C10.3606 7.66106 10.6685 7.54258 10.9201 7.30562C11.1763 7.06442 11.3043 6.77457 11.3043 6.43605C11.3043 6.09754 11.1763 5.8098 10.9201 5.57283C10.6685 5.33587 10.3606 5.21739 9.99663 5.21739C9.64611 5.21739 9.34052 5.33799 9.07988 5.57918C8.82373 5.81614 8.69565 6.10177 8.69565 6.43605C8.69565 6.77034 8.82373 7.05808 9.07988 7.29927ZM8.95854 8.28308V14.7826H11.0415V8.28308H8.95854Z" fill="#E8B24F"/>
</svg>
