<svg width="102" height="44" viewBox="0 0 102 44" fill="none" xmlns="http://www.w3.org/2000/svg">
<path fill-rule="evenodd" clip-rule="evenodd" d="M98.9829 18.1667H72.3162V37.8333H98.9829V18.1667ZM69.3162 15.1667V40.8333H101.983V15.1667H69.3162Z" fill="white"/>
<path fill-rule="evenodd" clip-rule="evenodd" d="M91.9829 14.5V9.33333C91.9829 5.83553 89.1474 3 85.6496 3C82.1518 3 79.3162 5.83553 79.3162 9.33333V14.5H91.9829ZM85.6496 0C80.4949 0 76.3162 4.17868 76.3162 9.33333V17.5H94.9829V9.33333C94.9829 4.17868 90.8042 0 85.6496 0Z" fill="white"/>
<path d="M88.6496 26C88.6496 27.6569 87.3064 29 85.6496 29C83.9927 29 82.6496 27.6569 82.6496 26C82.6496 24.3431 83.9927 23 85.6496 23C87.3064 23 88.6496 24.3431 88.6496 26Z" fill="white"/>
<path fill-rule="evenodd" clip-rule="evenodd" d="M85.6494 24C86.2017 24 86.6494 24.3963 86.6494 24.8852V32.1148C86.6494 32.6037 86.2017 33 85.6494 33C85.0971 33 84.6494 32.6037 84.6494 32.1148V24.8852C84.6494 24.3963 85.0971 24 85.6494 24Z" fill="white"/>
<path fill-rule="evenodd" clip-rule="evenodd" d="M17.1496 26C19.0826 26 20.6496 24.433 20.6496 22.5C20.6496 20.567 19.0826 19 17.1496 19C15.2166 19 13.6496 20.567 13.6496 22.5C13.6496 24.433 15.2166 26 17.1496 26ZM17.1496 29C20.7394 29 23.6496 26.0899 23.6496 22.5C23.6496 18.9101 20.7394 16 17.1496 16C13.5597 16 10.6496 18.9101 10.6496 22.5C10.6496 26.0899 13.5597 29 17.1496 29Z" fill="white"/>
<path fill-rule="evenodd" clip-rule="evenodd" d="M62.5282 22L57.5889 17.0607L59.7102 14.9393L66.7709 22L59.7102 29.0607L57.5889 26.9393L62.5282 22Z" fill="white"/>
<path d="M20.1702 3.07185L17.9829 1.74609L15.7956 3.07186C12.4072 5.12564 8.6398 6.47579 4.7182 7.04173L0 7.72264L1.91024 25.0902C2.57307 31.1165 6.00111 36.4917 11.1857 39.6342L17.9829 43.7542L24.7801 39.6342C29.7987 36.5923 33.1715 31.4583 33.9834 25.6667H30.9487C30.1621 30.3962 27.3509 34.568 23.225 37.0687L17.9829 40.2461L12.7407 37.0687C8.35376 34.4097 5.45311 29.8614 4.89226 24.7623L3.29911 10.2776L5.14671 10.011C9.46712 9.38747 13.6176 7.90002 17.3506 5.63738L17.9829 5.25415L18.6151 5.63738C22.3481 7.90002 26.4987 9.38747 30.8191 10.011L32.6667 10.2776L31.744 18.6667H34.762L35.9658 7.72264L31.2476 7.04173C27.326 6.47579 23.5586 5.12564 20.1702 3.07185Z" fill="white"/>
<path fill-rule="evenodd" clip-rule="evenodd" d="M62.8996 23.6667H22.6496V20.6667H62.8996V23.6667Z" fill="white"/>
</svg>
